<?xml version="1.0" encoding="UTF-8"?>
<!DOCTYPE svg PUBLIC "-//W3C//DTD SVG 1.1//EN" "http://www.w3.org/Graphics/SVG/1.1/DTD/svg11.dtd">
<!-- Creator: CorelDRAW (Evaluation Version) -->
<svg xmlns="http://www.w3.org/2000/svg" xml:space="preserve" width="210mm" height="297mm" version="1.1" style="shape-rendering:geometricPrecision; text-rendering:geometricPrecision; image-rendering:optimizeQuality; fill-rule:evenodd; clip-rule:evenodd"
viewBox="0 0 21000 29700"
 xmlns:xlink="http://www.w3.org/1999/xlink"
 xmlns:xodm="http://www.corel.com/coreldraw/odm/2003">
 <defs>
  <style type="text/css">
   <![CDATA[
    .str0 {stroke:#E32525;stroke-width:20;stroke-miterlimit:22.9256}
    .fil12 {fill:none}
    .fil5 {fill:#FEFEFE}
    .fil2 {fill:#5B5B5B}
    .fil0 {fill:#075E9E}
    .fil10 {fill:#333333}
    .fil4 {fill:#8B9B9B}
    .fil11 {fill:#8E3827}
    .fil1 {fill:#E0E6E2}
    .fil13 {fill:#E32525}
    .fil3 {fill:url(#id0)}
    .fil14 {fill:url(#id1)}
    .fil7 {fill:url(#id2)}
    .fil6 {fill:url(#id3)}
    .fil15 {fill:url(#id4)}
    .fil16 {fill:url(#id5)}
    .fil9 {fill:url(#id6);fill-rule:nonzero}
    .fil8 {fill:url(#id7);fill-rule:nonzero}
   ]]>
  </style>
  <linearGradient id="id0" gradientUnits="userSpaceOnUse" x1="15223" y1="6060.01" x2="15432.38" y2="5935.84">
   <stop offset="0" style="stop-opacity:1; stop-color:black"/>
   <stop offset="0.529412" style="stop-opacity:1; stop-color:#4D4D4D"/>
   <stop offset="1" style="stop-opacity:1; stop-color:#2B2A29"/>
  </linearGradient>
  <linearGradient id="id1" gradientUnits="userSpaceOnUse" xlink:href="#id0" x1="17178.07" y1="5939.36" x2="17385.17" y2="6069.19">
  </linearGradient>
  <radialGradient id="id2" gradientUnits="userSpaceOnUse" gradientTransform="matrix(0.999931 -0 -0 0.999744 1 1)" cx="15554.81" cy="5768.39" r="26.71" fx="15554.81" fy="5768.39">
   <stop offset="0" style="stop-opacity:1; stop-color:#9D9E9E"/>
   <stop offset="0.490196" style="stop-opacity:1; stop-color:#646463"/>
   <stop offset="1" style="stop-opacity:1; stop-color:#2B2A29"/>
  </radialGradient>
  <radialGradient id="id3" gradientUnits="userSpaceOnUse" gradientTransform="matrix(0.999931 -0 -0 0.999931 1 0)" xlink:href="#id2" cx="15025.54" cy="6082.31" r="26.71" fx="15025.54" fy="6082.31">
  </radialGradient>
  <radialGradient id="id4" gradientUnits="userSpaceOnUse" gradientTransform="matrix(0.64882 1.20431 -1.20408 0.648699 12955 -18523)" xlink:href="#id2" cx="17067.33" cy="5781.1" r="17.1" fx="17067.33" fy="5781.1">
  </radialGradient>
  <radialGradient id="id5" gradientUnits="userSpaceOnUse" gradientTransform="matrix(0.648786 1.20436 -1.20436 0.648786 13524 -19049)" xlink:href="#id2" cx="17594.7" cy="6098.24" r="17.1" fx="17594.7" fy="6098.24">
  </radialGradient>
  <linearGradient id="id6" gradientUnits="userSpaceOnUse" x1="15559.61" y1="6391.62" x2="16220.01" y2="8165.39">
   <stop offset="0" style="stop-opacity:1; stop-color:#FCFBF9"/>
   <stop offset="1" style="stop-opacity:1; stop-color:#FFF199"/>
  </linearGradient>
  <linearGradient id="id7" gradientUnits="userSpaceOnUse" xlink:href="#id6" x1="17111.13" y1="6427.25" x2="16248.59" y2="8145.64">
  </linearGradient>
 </defs>
 <g id="Layer_x0020_1">
  <metadata id="CorelCorpID_0Corel-Layer"/>
  <path class="fil0" d="M16317.2 4052.07c1282.17,0 2321.6,1039.43 2321.6,2321.6 0,716.85 -324.98,1357.71 -835.56,1783.57l-2972.06 0c-510.57,-425.86 -835.54,-1066.72 -835.54,-1783.57 0,-1282.17 1039.39,-2321.6 2321.56,-2321.6z"/>
  <path class="fil1" d="M14874.38 6128.52c37.43,-21.76 787.47,-466.44 787.47,-466.44 0,0 37.71,-32.53 52.81,2.29l280.39 482.57c8.85,20.04 22.78,27.44 -4.63,42.82 -33.09,18.56 -809.87,476.04 -809.87,476.04 0,0 -28.75,16.83 -39.19,-6.38 -9.53,-21.2 -232.69,-408.94 -271.96,-476.04 -14.39,-24.62 -24.9,-35 4.98,-54.86z"/>
  <path class="fil2" d="M14850 6090.21c37.43,-21.77 787.47,-466.48 787.47,-466.48 0,0 37.71,-32.49 52.81,2.33l283.28 482.42c5.61,13.8 18.8,27.2 -7.51,42.97 -27.73,14.36 -809.87,476.04 -809.87,476.04 0,0 -25.55,16.26 -35.99,-6.98 -9.56,-21.21 -235.9,-408.34 -275.16,-475.44 -14.43,-24.63 -24.91,-35 4.97,-54.86z"/>
  <path class="fil3" d="M15202.14 5883.13c0,0 97.05,-57.5 98.43,-58.31 3.49,6.24 56.48,101.17 56.48,101.17l57.46 -34.53c0,0 10.83,-8.19 16.76,2.71 5.93,10.87 20.39,36.2 20.39,36.2l-229.9 136.98 -19.94 -34.54c0,0 -8.46,-9.24 7.1,-18.38 15.52,-9.1 49.21,-29.14 49.21,-29.14l-55.99 -102.16z"/>
  <polygon class="fil4" points="14950.33,6220.07 15712.05,5771.83 15771.95,5877.45 15012.59,6327.31 "/>
  <polygon class="fil5" points="15012.59,6327.31 15771.95,5877.45 15803.88,5930.86 15044.52,6380.72 "/>
  <path class="fil5" d="M15077.44 6361.25l12.34 25.05 19.55 -11.29 80.75 145.98c19.86,35.7 98.81,14.53 81.42,-45.3 -17.43,-30.16 -81.28,-149.75 -81.28,-149.75l18.59 -12.21 -13.3 -22.44 -118.07 69.96z"/>
  <path class="fil5" d="M15218.83 6277.47l12.63 25.22 19.51 -11.25 80.75 145.94c19.86,35.74 98.81,14.53 81.42,-45.26 -17.39,-30.2 -81.25,-149.79 -81.25,-149.79l18.56 -12.21 -13.41 -22.68 -118.21 70.03z"/>
  <path class="fil5" d="M15363.93 6191.49l12.66 25.3 19.51 -11.29 80.75 145.98c19.86,35.7 98.81,14.53 81.42,-45.3 -17.39,-30.2 -81.24,-149.75 -81.24,-149.75l18.55 -12.21 -13.44 -22.72 -118.21 69.99z"/>
  <path class="fil5" d="M15510.54 6104.64l14.64 27.41 19.54 -11.29 80.76 145.95c19.86,35.7 98.81,14.53 81.42,-45.3 -17.43,-30.16 -81.28,-149.76 -81.28,-149.76l18.59 -12.17 -14.75 -25.29 -118.92 70.45z"/>
  <path class="fil5" d="M15659.27 6016.55l13.37 27.24 19.55 -11.29 80.75 145.98c19.86,35.7 98.81,14.53 81.42,-45.3 -17.43,-30.16 -81.28,-149.75 -81.28,-149.75l18.59 -12.21 -14.5 -24.52 -117.9 69.85z"/>
  <path class="fil6" d="M15025.54 6055.6c14.75,0 26.71,11.96 26.71,26.71 0,14.74 -11.96,26.7 -26.71,26.7 -14.74,0 -26.7,-11.96 -26.7,-26.7 0,-14.75 11.96,-26.71 26.7,-26.71z"/>
  <path class="fil7" d="M15554.81 5741.7c14.75,0 26.71,11.93 26.71,26.71 0,14.74 -11.96,26.67 -26.71,26.67 -14.74,0 -26.7,-11.93 -26.7,-26.67 0,-14.78 11.96,-26.71 26.7,-26.71z"/>
  <g id="_1698344940528">
   <polygon class="fil8" points="15637.93,8103.62 16699.51,6238.1 17421.5,6676.14 17090.42,8107.29 "/>
  </g>
  <g id="_1698344941488">
   <path class="fil9" d="M15199.71 6652.57c9.31,16.83 336.05,1451.19 336.05,1451.19l1442.02 -2.33 -1063.06 -1867.46 -715.01 418.6z"/>
  </g>
  <polygon class="fil10" points="14826.33,8102.07 17807.94,8102.07 17807.94,8157.24 14826.33,8157.24 "/>
  <polygon class="fil11" points="16027.96,7955.1 16580.66,7955.1 16580.66,8102.07 16027.96,8102.07 "/>
  <polyline class="fil12 str0" points="16199.8,5428.65 16199.8,5620.8 16199.8,7955.1 "/>
  <polygon class="fil13" points="16167.55,6320.65 16199.8,6197 16234.3,6321.53 "/>
  <polygon class="fil13" points="16167.55,5738.95 16199.8,5615.3 16234.3,5739.8 "/>
  <polygon class="fil13" points="16167.55,6874.68 16199.8,6751 16234.3,6875.53 "/>
  <polygon class="fil13" points="16167.55,7520.76 16199.8,7397.08 16234.3,7521.61 "/>
  <polyline class="fil12 str0" points="16306.55,5428.65 16306.55,5620.8 16306.55,7955.1 "/>
  <polygon class="fil13" points="16274.3,6320.65 16306.55,6197 16341.09,6321.53 "/>
  <polygon class="fil13" points="16274.3,5738.95 16306.55,5615.3 16341.09,5739.8 "/>
  <polygon class="fil13" points="16274.3,6874.68 16306.55,6751 16341.09,6875.53 "/>
  <polygon class="fil13" points="16274.3,7520.76 16306.55,7397.08 16341.09,7521.61 "/>
  <polyline class="fil12 str0" points="16417.99,5428.65 16417.99,5620.8 16417.99,7955.1 "/>
  <polygon class="fil13" points="16385.78,6320.65 16417.99,6197 16452.53,6321.53 "/>
  <polygon class="fil13" points="16385.78,5738.95 16417.99,5615.3 16452.53,5739.8 "/>
  <polygon class="fil13" points="16385.78,6874.68 16417.99,6751 16452.53,6875.53 "/>
  <polygon class="fil13" points="16385.78,7520.76 16417.99,7397.08 16452.53,7521.61 "/>
  <path class="fil1" d="M16954.95 5669.91c36.94,22.65 784.12,472.12 784.12,472.12 0,0 46.5,17.82 23,47.63l-291.92 475.68c-13.41,17.29 -13.33,33.06 -39.86,16.2 -32.07,-20.32 -803.17,-487.26 -803.17,-487.26 0,0 -28.44,-17.32 -12.95,-37.54 14.15,-18.45 249.7,-398.81 290.16,-465.17 14.82,-24.37 18.98,-38.56 50.62,-21.66z"/>
  <path class="fil2" d="M16977.11 5630.29c36.93,22.65 784.12,472.13 784.12,472.13 0,0 46.53,17.78 23,47.59l-290.37 478.19c-9.49,11.43 -15.07,29.45 -41.42,13.72 -25.79,-17.6 -803.13,-487.29 -803.13,-487.29 0,0 -26.43,-14.78 -10.94,-35 14.15,-18.45 247.65,-401.32 288.11,-467.71 14.86,-24.38 19.02,-38.52 50.63,-21.63z"/>
  <path class="fil14" d="M17326.43 5842.14c0,0 96.66,58.17 98.04,59.02 -3.85,6.03 -62.3,97.68 -62.3,97.68l57.64 34.22c0,0 12.35,5.65 5.57,16.02 -6.77,10.4 -22.19,35.13 -22.19,35.13l-229.62 -137.44 20.96 -33.94c0,0 4.12,-11.85 19.5,-2.47 15.42,9.35 49,29.5 49,29.5l63.4 -97.72z"/>
  <polygon class="fil4" points="16910.4,5780.19 17666.22,6238.31 17601.63,6341.14 16845.49,5885.88 "/>
  <polygon class="fil5" points="16845.49,5885.88 17601.63,6341.14 17569.74,6394.55 16813.63,5939.33 "/>
  <path class="fil5" d="M16846.37 5959.05l-16.19 22.79 19.19 11.82 -90.21 140.33c-22.05,34.4 34.05,93.87 78.46,50.2 18.31,-29.63 93.34,-142.56 93.34,-142.56l19.55 10.55 13.44 -22.33 -117.58 -70.8z"/>
  <path class="fil5" d="M16987.2 6043.82l-16.27 23.07 19.2 11.86 -90.21 140.3c-22.05,34.43 34.08,93.87 78.46,50.2 18.34,-29.64 93.34,-142.56 93.34,-142.56l19.55 10.58 13.61 -22.58 -117.68 -70.87z"/>
  <path class="fil5" d="M17131.66 6130.82l-16.26 23.1 19.19 11.86 -90.21 140.3c-22.01,34.43 34.05,93.87 78.46,50.23 18.35,-29.67 93.35,-142.59 93.35,-142.59l19.54 10.58 13.62 -22.61 -117.69 -70.87z"/>
  <path class="fil5" d="M17277.64 6218.69l-17.15 25.9 19.2 11.85 -90.21 140.3c-22.05,34.43 34.08,93.87 78.46,50.2 18.34,-29.63 93.34,-142.56 93.34,-142.56l19.55 10.59 15.24 -24.98 -118.43 -71.3z"/>
  <path class="fil5" d="M17425.74 6307.87l-17.64 24.7 19.22 11.85 -90.24 140.3c-22.01,34.43 34.08,93.88 78.5,50.2 18.3,-29.63 93.31,-142.55 93.31,-142.55l19.54 10.58 14.71 -24.41 -117.4 -70.67z"/>
  <path class="fil15" d="M17090.84 5768.44c6.99,12.98 2.16,29.18 -10.83,36.16 -13.01,7.02 -29.17,2.15 -36.19,-10.83 -6.99,-12.98 -2.12,-29.17 10.86,-36.19 12.99,-6.99 29.18,-2.12 36.16,10.86z"/>
  <path class="fil16" d="M17618.21 6085.59c6.99,12.98 2.15,29.17 -10.83,36.16 -12.98,6.98 -29.17,2.12 -36.19,-10.83 -6.99,-13.02 -2.12,-29.21 10.86,-36.2 12.98,-6.98 29.18,-2.11 36.16,10.87z"/>
  <image x="15815.94" y="4182.29" width="983.5" height="1263.22" xlink:href="bar_Images\bar_ImgID1.png"/>
 </g>
</svg>
